<svg width="263" height="44" viewBox="0 0 263 44" fill="none" xmlns="http://www.w3.org/2000/svg">
<path d="M17.1562 15.696C17.0199 14.4858 16.4574 13.5483 15.4688 12.8835C14.4801 12.2102 13.2358 11.8736 11.7358 11.8736C10.6619 11.8736 9.73295 12.044 8.94886 12.3849C8.16477 12.7173 7.5554 13.1776 7.12074 13.7656C6.6946 14.3452 6.48153 15.0057 6.48153 15.7472C6.48153 16.3693 6.62642 16.9062 6.91619 17.358C7.21449 17.8097 7.60227 18.1889 8.07955 18.4957C8.56534 18.794 9.08523 19.0455 9.6392 19.25C10.1932 19.446 10.7259 19.608 11.2372 19.7358L13.794 20.4006C14.6293 20.6051 15.4858 20.8821 16.3636 21.2315C17.2415 21.581 18.0554 22.0412 18.8054 22.6122C19.5554 23.1832 20.1605 23.8906 20.6207 24.7344C21.0895 25.5781 21.3239 26.5881 21.3239 27.7642C21.3239 29.2472 20.9403 30.5639 20.1733 31.7145C19.4148 32.8651 18.3111 33.7727 16.8622 34.4375C15.4219 35.1023 13.679 35.4347 11.6335 35.4347C9.6733 35.4347 7.97727 35.1236 6.54545 34.5014C5.11364 33.8793 3.9929 32.9972 3.18324 31.8551C2.37358 30.7045 1.92614 29.3409 1.84091 27.7642H5.80398C5.88068 28.7102 6.1875 29.4986 6.72443 30.1293C7.26989 30.7514 7.96449 31.2159 8.80824 31.5227C9.66051 31.821 10.5938 31.9702 11.608 31.9702C12.7244 31.9702 13.7173 31.7955 14.5866 31.446C15.4645 31.0881 16.1548 30.5937 16.6577 29.9631C17.1605 29.3239 17.4119 28.5781 17.4119 27.7259C17.4119 26.9503 17.1903 26.3153 16.7472 25.821C16.3125 25.3267 15.7202 24.9176 14.9702 24.5938C14.2287 24.2699 13.3892 23.9844 12.4517 23.7372L9.35795 22.8935C7.26136 22.3224 5.59943 21.483 4.37216 20.375C3.15341 19.267 2.54403 17.8011 2.54403 15.9773C2.54403 14.4687 2.95313 13.152 3.77131 12.027C4.58949 10.902 5.69744 10.0284 7.09517 9.40625C8.4929 8.77557 10.0696 8.46023 11.8253 8.46023C13.598 8.46023 15.1619 8.77131 16.517 9.39347C17.8807 10.0156 18.9545 10.8722 19.7386 11.9631C20.5227 13.0455 20.9318 14.2898 20.9659 15.696H17.1562ZM34.9038 15.3636V18.4318H24.1779V15.3636H34.9038ZM27.0543 10.6591H30.8768V29.2344C30.8768 29.9759 30.9876 30.5341 31.2092 30.9091C31.4308 31.2756 31.7163 31.527 32.0657 31.6634C32.4237 31.7912 32.8114 31.8551 33.229 31.8551C33.5359 31.8551 33.8043 31.8338 34.0344 31.7912C34.2646 31.7486 34.4435 31.7145 34.5714 31.6889L35.2617 34.8466C35.0401 34.9318 34.7248 35.017 34.3157 35.1023C33.9066 35.196 33.3952 35.2472 32.7816 35.2557C31.7759 35.2727 30.8384 35.0938 29.9691 34.7188C29.0998 34.3438 28.3967 33.7642 27.8597 32.9801C27.3228 32.196 27.0543 31.2116 27.0543 30.027V10.6591ZM44.8466 35.4347C43.6023 35.4347 42.4773 35.2045 41.4716 34.7443C40.4659 34.2756 39.669 33.598 39.081 32.7116C38.5014 31.8253 38.2116 30.7386 38.2116 29.4517C38.2116 28.3437 38.4247 27.4318 38.8509 26.7159C39.277 26 39.8523 25.4332 40.5767 25.0156C41.3011 24.598 42.1108 24.2827 43.0057 24.0696C43.9006 23.8565 44.8125 23.6946 45.7415 23.5838C46.9176 23.4474 47.8722 23.3366 48.6051 23.2514C49.3381 23.1577 49.8707 23.0085 50.2031 22.804C50.5355 22.5994 50.7017 22.267 50.7017 21.8068V21.7173C50.7017 20.6009 50.3864 19.7358 49.7557 19.1222C49.1335 18.5085 48.2045 18.2017 46.9688 18.2017C45.6818 18.2017 44.6676 18.4872 43.9261 19.0582C43.1932 19.6207 42.6861 20.2472 42.4048 20.9375L38.8125 20.1193C39.2386 18.9261 39.8608 17.9631 40.679 17.2301C41.5057 16.4886 42.456 15.9517 43.5298 15.6193C44.6037 15.2784 45.733 15.108 46.9176 15.108C47.7017 15.108 48.5327 15.2017 49.4105 15.3892C50.2969 15.5682 51.1236 15.9006 51.8906 16.3864C52.6662 16.8722 53.3011 17.5668 53.7955 18.4702C54.2898 19.3651 54.5369 20.5284 54.5369 21.9602V35H50.804V32.3153H50.6506C50.4034 32.8097 50.0327 33.2955 49.5384 33.7727C49.044 34.25 48.4091 34.6463 47.6335 34.9616C46.858 35.277 45.929 35.4347 44.8466 35.4347ZM45.6776 32.3665C46.7344 32.3665 47.6378 32.1577 48.3878 31.7401C49.1463 31.3224 49.7216 30.777 50.1136 30.1037C50.5142 29.4219 50.7145 28.6932 50.7145 27.9176V25.3864C50.5781 25.5227 50.3139 25.6506 49.9219 25.7699C49.5384 25.8807 49.0994 25.9787 48.6051 26.0639C48.1108 26.1406 47.6293 26.2131 47.1605 26.2812C46.6918 26.3409 46.2997 26.392 45.9844 26.4347C45.2429 26.5284 44.5653 26.6861 43.9517 26.9077C43.3466 27.1293 42.8608 27.4489 42.4943 27.8665C42.1364 28.2756 41.9574 28.821 41.9574 29.5028C41.9574 30.4489 42.3068 31.1648 43.0057 31.6506C43.7045 32.1278 44.5952 32.3665 45.6776 32.3665ZM61.3413 42.3636C60.7702 42.3636 60.2504 42.3168 59.7816 42.223C59.3129 42.1378 58.9634 42.044 58.7333 41.9418L59.6538 38.8097C60.3526 38.9972 60.9748 39.0781 61.5202 39.0526C62.0657 39.027 62.5472 38.8224 62.9648 38.4389C63.391 38.0554 63.766 37.429 64.0898 36.5597L64.5629 35.2557L57.3782 15.3636H61.4691L66.4421 30.6023H66.6467L71.6197 15.3636H75.7234L67.631 37.6207C67.256 38.6435 66.7788 39.5085 66.1992 40.2159C65.6197 40.9318 64.9293 41.4688 64.1282 41.8267C63.3271 42.1847 62.3981 42.3636 61.3413 42.3636ZM79.6225 35V8.81818H83.5728V20.196H96.6254V8.81818H100.588V35H96.6254V23.5838H83.5728V35H79.6225ZM114.498 35.3963C112.563 35.3963 110.897 34.983 109.499 34.1562C108.11 33.321 107.036 32.1491 106.277 30.6406C105.527 29.1236 105.152 27.3466 105.152 25.3097C105.152 23.2983 105.527 21.5256 106.277 19.9915C107.036 18.4574 108.093 17.2599 109.448 16.3991C110.811 15.5384 112.405 15.108 114.229 15.108C115.337 15.108 116.411 15.2912 117.451 15.6577C118.49 16.0241 119.424 16.5994 120.25 17.3835C121.077 18.1676 121.729 19.1861 122.206 20.4389C122.684 21.6832 122.922 23.196 122.922 24.9773V26.3324H107.313V23.4688H119.176C119.176 22.4631 118.972 21.5724 118.563 20.7969C118.154 20.0128 117.578 19.3949 116.837 18.9432C116.104 18.4915 115.243 18.2656 114.255 18.2656C113.181 18.2656 112.243 18.5298 111.442 19.0582C110.65 19.5781 110.036 20.2599 109.601 21.1037C109.175 21.9389 108.962 22.8466 108.962 23.8267V26.0639C108.962 27.3764 109.192 28.4929 109.652 29.4134C110.121 30.3338 110.773 31.0369 111.608 31.5227C112.444 32 113.419 32.2386 114.536 32.2386C115.26 32.2386 115.921 32.1364 116.517 31.9318C117.114 31.7187 117.63 31.4034 118.064 30.9858C118.499 30.5682 118.831 30.0526 119.061 29.4389L122.679 30.0909C122.39 31.1562 121.87 32.0895 121.12 32.8906C120.378 33.6832 119.445 34.3011 118.32 34.7443C117.203 35.179 115.929 35.3963 114.498 35.3963ZM132.878 35.4347C131.634 35.4347 130.509 35.2045 129.503 34.7443C128.497 34.2756 127.7 33.598 127.112 32.7116C126.533 31.8253 126.243 30.7386 126.243 29.4517C126.243 28.3437 126.456 27.4318 126.882 26.7159C127.308 26 127.884 25.4332 128.608 25.0156C129.332 24.598 130.142 24.2827 131.037 24.0696C131.932 23.8565 132.844 23.6946 133.773 23.5838C134.949 23.4474 135.903 23.3366 136.636 23.2514C137.369 23.1577 137.902 23.0085 138.234 22.804C138.567 22.5994 138.733 22.267 138.733 21.8068V21.7173C138.733 20.6009 138.418 19.7358 137.787 19.1222C137.165 18.5085 136.236 18.2017 135 18.2017C133.713 18.2017 132.699 18.4872 131.957 19.0582C131.224 19.6207 130.717 20.2472 130.436 20.9375L126.844 20.1193C127.27 18.9261 127.892 17.9631 128.71 17.2301C129.537 16.4886 130.487 15.9517 131.561 15.6193C132.635 15.2784 133.764 15.108 134.949 15.108C135.733 15.108 136.564 15.2017 137.442 15.3892C138.328 15.5682 139.155 15.9006 139.922 16.3864C140.697 16.8722 141.332 17.5668 141.827 18.4702C142.321 19.3651 142.568 20.5284 142.568 21.9602V35H138.835V32.3153H138.682C138.435 32.8097 138.064 33.2955 137.57 33.7727C137.075 34.25 136.44 34.6463 135.665 34.9616C134.889 35.277 133.96 35.4347 132.878 35.4347ZM133.709 32.3665C134.766 32.3665 135.669 32.1577 136.419 31.7401C137.178 31.3224 137.753 30.777 138.145 30.1037C138.545 29.4219 138.746 28.6932 138.746 27.9176V25.3864C138.609 25.5227 138.345 25.6506 137.953 25.7699C137.57 25.8807 137.131 25.9787 136.636 26.0639C136.142 26.1406 135.661 26.2131 135.192 26.2812C134.723 26.3409 134.331 26.392 134.016 26.4347C133.274 26.5284 132.597 26.6861 131.983 26.9077C131.378 27.1293 130.892 27.4489 130.526 27.8665C130.168 28.2756 129.989 28.821 129.989 29.5028C129.989 30.4489 130.338 31.1648 131.037 31.6506C131.736 32.1278 132.626 32.3665 133.709 32.3665ZM151.482 8.81818V35H147.659V8.81818H151.482ZM165.79 15.3636V18.4318H155.065V15.3636H165.79ZM157.941 10.6591H161.763V29.2344C161.763 29.9759 161.874 30.5341 162.096 30.9091C162.317 31.2756 162.603 31.527 162.952 31.6634C163.31 31.7912 163.698 31.8551 164.116 31.8551C164.423 31.8551 164.691 31.8338 164.921 31.7912C165.151 31.7486 165.33 31.7145 165.458 31.6889L166.148 34.8466C165.927 34.9318 165.612 35.017 165.202 35.1023C164.793 35.196 164.282 35.2472 163.668 35.2557C162.663 35.2727 161.725 35.0938 160.856 34.7188C159.987 34.3438 159.283 33.7642 158.746 32.9801C158.21 32.196 157.941 31.2116 157.941 30.027V10.6591ZM174.263 23.3409V35H170.441V8.81818H174.212V18.5597H174.455C174.915 17.5028 175.618 16.6634 176.564 16.0412C177.51 15.419 178.746 15.108 180.272 15.108C181.618 15.108 182.794 15.3849 183.8 15.9389C184.814 16.4929 185.598 17.3196 186.152 18.419C186.715 19.5099 186.996 20.8736 186.996 22.5099V35H183.174V22.9702C183.174 21.5298 182.803 20.4134 182.061 19.6207C181.32 18.8196 180.289 18.419 178.968 18.419C178.064 18.419 177.255 18.6108 176.539 18.9943C175.831 19.3778 175.273 19.9403 174.864 20.6818C174.463 21.4148 174.263 22.3011 174.263 23.3409ZM193.81 42.3636C193.239 42.3636 192.719 42.3168 192.25 42.223C191.782 42.1378 191.432 42.044 191.202 41.9418L192.123 38.8097C192.821 38.9972 193.444 39.0781 193.989 39.0526C194.534 39.027 195.016 38.8224 195.434 38.4389C195.86 38.0554 196.235 37.429 196.559 36.5597L197.032 35.2557L189.847 15.3636H193.938L198.911 30.6023H199.115L204.088 15.3636H208.192L200.1 37.6207C199.725 38.6435 199.248 39.5085 198.668 40.2159C198.088 40.9318 197.398 41.4688 196.597 41.8267C195.796 42.1847 194.867 42.3636 193.81 42.3636Z" fill="black"/>
<path d="M245.364 6.15229C245.874 6.35768 249.076 7.90714 247.438 13.915C246.39 14.2321 246.117 12.9156 246.117 12.9156C244.75 7.85901 241 10.5007 241 10.5007C240.944 10.4621 240.889 10.4251 240.835 10.389C239.326 9.39815 237.303 10.0633 236.586 11.7202C235.705 13.756 234.408 14.0087 234.408 14.0087C234.408 14.0087 232.904 8.17784 237.051 7.1294C237.051 7.1294 238.93 3.23643 245.128 6.05003C245.206 6.08526 245.285 6.1205 245.364 6.15229ZM248.294 29.981C247.33 29.981 246.548 30.7631 246.548 31.7282C246.548 32.6932 247.33 33.4744 248.294 33.4744C249.258 33.4744 250.04 32.6924 250.04 31.7282C250.04 30.7639 249.259 29.981 248.294 29.981ZM248.294 25.2622C251.789 26.4885 254.312 29.8289 254.312 33.7288V37.3278C254.312 38.2319 253.572 38.971 252.668 38.971H241V27.7974L245.657 24.5352C245.924 24.6916 246.221 24.7982 246.536 24.8394C247.143 24.921 247.731 25.0637 248.294 25.2622Z" fill="#B8DAFF"/>
<path d="M233.706 25.2622C234.269 25.0637 234.857 24.921 235.465 24.8394C235.779 24.7981 236.077 24.6916 236.342 24.5343L241 27.7973V38.9709H229.332C228.428 38.9709 227.688 38.2319 227.688 37.3278V33.7288C227.688 29.8298 230.212 26.4894 233.706 25.2622Z" fill="#B8DAFF"/>
<path d="M241.076 23.1834C240.522 23.1834 239.968 23.0708 239.447 22.8474C238.903 22.6136 238.395 22.3326 237.934 22.0121C236.396 20.9379 235.504 19.464 235.332 17.7281C234.894 17.6198 234.251 17.3594 233.858 16.7355C233.418 16.036 233.422 15.1053 233.868 13.9657C233.71 13.2464 233.207 10.4655 234.382 8.48378C234.907 7.59777 235.69 6.99449 236.71 6.68769C236.94 6.32503 237.502 5.58769 238.535 5.07206C239.77 4.45503 241.954 4.04167 245.341 5.57909C245.412 5.61089 245.484 5.64355 245.556 5.67277C245.862 5.79566 246.916 6.29839 247.655 7.60206C248.543 9.16785 248.656 11.2604 247.995 13.8248C248.226 14.2141 248.626 15.0649 248.401 15.9947C248.223 16.7321 247.708 17.3397 246.866 17.8037C246.74 18.5797 246.212 20.6886 244.117 22.1135C243.601 22.465 243.019 22.7511 242.388 22.9651C241.962 23.1095 241.518 23.1817 241.075 23.1817L241.076 23.1834ZM241.078 5.55159C238.427 5.55159 237.527 7.32792 237.515 7.35285C237.449 7.49035 237.325 7.59089 237.178 7.6287C236.317 7.84613 235.694 8.2973 235.272 9.008C234.159 10.8806 234.9 13.8497 234.908 13.8798C234.936 13.9889 234.928 14.1041 234.884 14.2081C234.63 14.8131 234.396 15.6467 234.728 16.1821C235.062 16.7192 235.841 16.7733 235.849 16.7733C236.115 16.7897 236.328 17.0062 236.335 17.2726C236.385 18.8762 237.122 20.1859 238.524 21.1665C238.926 21.4466 239.374 21.6941 239.854 21.9004C240.557 22.202 241.339 22.2347 242.056 21.9906C242.599 21.8067 243.097 21.5618 243.536 21.2627C245.682 19.8035 245.873 17.4591 245.875 17.435C245.887 17.2511 245.998 17.0879 246.164 17.0079C246.86 16.6711 247.274 16.2517 247.396 15.761C247.585 14.9944 247.03 14.2313 247.023 14.2244C246.93 14.0972 246.898 13.9322 246.939 13.7801C247.592 11.3859 247.531 9.47894 246.756 8.11253C246.168 7.07355 245.331 6.69628 245.17 6.63097C245.085 6.5966 245.001 6.55878 244.916 6.52097C243.351 5.81027 242.086 5.55245 241.077 5.55245L241.078 5.55159Z" fill="#3F8CF4"/>
<path d="M234.508 14.5148L234.311 13.5025L234.302 13.5042C234.345 13.4939 235.367 13.2404 236.114 11.5156C236.525 10.5634 237.328 9.84841 238.316 9.55279C239.229 9.27951 240.204 9.40326 241.011 9.89052C241.584 9.57169 242.868 9.00708 244.152 9.47201C245.306 9.8888 246.134 11.0017 246.614 12.7815C246.617 12.7909 246.62 12.8012 246.621 12.8115C246.653 12.9559 246.783 13.2962 246.975 13.4097C247.027 13.4397 247.116 13.4741 247.289 13.4217C247.562 13.3392 247.849 13.493 247.932 13.7663C248.014 14.0387 247.861 14.3266 247.587 14.4091C247.176 14.5337 246.782 14.4942 246.447 14.2948C245.844 13.9365 245.649 13.1871 245.615 13.0384C245.227 11.6127 244.619 10.7396 243.806 10.444C242.624 10.0134 241.309 10.9149 241.295 10.9235C241.118 11.0464 240.882 11.0472 240.705 10.9252C240.652 10.8883 240.6 10.853 240.548 10.8186C239.971 10.4397 239.281 10.34 238.609 10.5411C237.914 10.749 237.35 11.2535 237.059 11.9255C236.081 14.1848 234.57 14.5028 234.507 14.5157L234.508 14.5148ZM252.669 39.4866H229.332C228.141 39.4866 227.173 38.518 227.173 37.3278V33.7287C227.173 29.7103 229.729 26.1121 233.535 24.7758C234.134 24.5644 234.76 24.414 235.396 24.328C235.637 24.2962 235.866 24.2163 236.079 24.09C236.085 24.0865 236.09 24.084 236.096 24.0805C236.397 23.8975 236.639 23.6328 236.796 23.314L237.742 21.3958C237.869 21.1406 238.177 21.0358 238.433 21.1612C238.688 21.2876 238.793 21.5961 238.668 21.8522L237.722 23.7694C237.474 24.273 237.088 24.6907 236.607 24.976C236.6 24.9803 236.593 24.9837 236.586 24.988C236.257 25.1788 235.903 25.3008 235.532 25.349C234.968 25.4246 234.411 25.5587 233.878 25.7469C230.484 26.9388 228.204 30.146 228.204 33.727V37.3261C228.204 37.9474 228.71 38.4536 229.332 38.4536H252.669C253.29 38.4536 253.796 37.9474 253.796 37.3261V33.727C253.796 30.1443 251.516 26.9371 248.124 25.7469C247.59 25.5587 247.033 25.4246 246.468 25.3481C246.094 25.2991 245.733 25.1745 245.397 24.9777C244.912 24.689 244.527 24.2713 244.28 23.7677L243.365 21.9149C243.239 21.6597 243.344 21.3503 243.6 21.224C243.855 21.0985 244.164 21.2025 244.291 21.4586L245.205 23.3122C245.365 23.6371 245.612 23.9052 245.922 24.09C246.135 24.2146 246.365 24.2945 246.604 24.3255C247.241 24.4114 247.867 24.5618 248.467 24.7732C252.272 26.1078 254.828 29.706 254.828 33.7262V37.3252C254.828 38.5155 253.86 39.484 252.67 39.484L252.669 39.4866Z" fill="#3F8CF4"/>
<path d="M241 28.313C240.897 28.313 240.793 28.282 240.704 28.2193L236.053 24.9605C235.84 24.8162 235.762 24.5326 235.882 24.2988C236.012 24.0453 236.322 23.9448 236.576 24.0745H236.578C236.599 24.0866 236.619 24.0986 236.639 24.1123L241.001 27.1683L245.362 24.1132C245.362 24.1132 245.37 24.108 245.373 24.1055C245.611 23.9482 245.932 24.0126 246.089 24.2507C246.246 24.487 246.183 24.8041 245.948 24.9614L241.297 28.2201C241.208 28.282 241.104 28.3138 241.001 28.3138L241 28.313Z" fill="#3F8CF4"/>
<path d="M241 39.4866C240.715 39.4866 240.484 39.2554 240.484 38.971V27.7974C240.484 27.5129 240.715 27.2817 241 27.2817C241.284 27.2817 241.516 27.5129 241.516 27.7974V38.971C241.516 39.2554 241.284 39.4866 241 39.4866ZM248.294 30.4967C248.01 30.4967 247.779 30.2655 247.779 29.981V25.239C247.779 24.9546 248.01 24.7234 248.294 24.7234C248.579 24.7234 248.81 24.9546 248.81 25.239V29.981C248.81 30.2655 248.579 30.4967 248.294 30.4967ZM233.706 30.4975C233.421 30.4975 233.19 30.2664 233.19 29.9819V25.239C233.19 24.9546 233.421 24.7234 233.706 24.7234C233.99 24.7234 234.221 24.9546 234.221 25.239V29.9819C234.221 30.2664 233.99 30.4975 233.706 30.4975Z" fill="#3F8CF4"/>
<path d="M248.294 33.99C247.047 33.99 246.032 32.9751 246.032 31.7281C246.032 30.4812 247.047 29.4654 248.294 29.4654C249.541 29.4654 250.556 30.4803 250.556 31.7281C250.556 32.9759 249.541 33.99 248.294 33.99ZM248.294 30.4966C247.615 30.4966 247.064 31.0492 247.064 31.7281C247.064 32.407 247.615 32.9588 248.294 32.9588C248.973 32.9588 249.525 32.407 249.525 31.7281C249.525 31.0492 248.973 30.4966 248.294 30.4966ZM235.125 35.0152H234.69C234.406 35.0152 234.175 34.7841 234.175 34.4996C234.175 34.2152 234.406 33.984 234.69 33.984H235.125C235.304 33.984 235.449 33.8388 235.449 33.6609V32.2403C235.449 31.7754 235.268 31.3371 234.938 31.0071C234.609 30.6788 234.171 30.4975 233.706 30.4975H233.67C232.728 30.5164 231.962 31.3199 231.962 32.2919V33.6609C231.962 33.8388 232.107 33.984 232.286 33.984H232.72C233.004 33.984 233.236 34.2152 233.236 34.4996C233.236 34.7841 233.004 35.0152 232.72 35.0152H232.286C231.538 35.0152 230.931 34.4077 230.931 33.6609V32.2919C230.931 30.7596 232.154 29.492 233.657 29.4663C233.659 29.4663 233.663 29.4663 233.665 29.4663H233.706C234.446 29.4663 235.142 29.7541 235.667 30.2775C236.192 30.8034 236.481 31.5004 236.481 32.2403V33.6609C236.481 34.4077 235.873 35.0152 235.125 35.0152Z" fill="#3F8CF4"/>
</svg>
